<?xml version="1.0" encoding="utf-8"?>
<!-- Generator: Adobe Illustrator 25.0.0, SVG Export Plug-In . SVG Version: 6.00 Build 0)  -->
<svg version="1.1" id="Layer_1" xmlns="http://www.w3.org/2000/svg" xmlns:xlink="http://www.w3.org/1999/xlink" x="0px" y="0px"
	 viewBox="0 0 24 24" style="enable-background:new 0 0 24 24;" xml:space="preserve">
<style type="text/css">
	.st0{fill:#A3A3A3;}
</style>
<path class="st0" d="M24.4,13.4c-0.7,6.3-6,11.2-12.4,11.2c-3.8,0-7.1-1.7-9.5-4.3L4.2,18c2,2.2,4.7,3.8,7.8,3.8
	c4.9,0,8.9-3.6,9.6-8.4h-4l5.6-7.3l5.6,7.3H24.4z M2.4,10.6C3.1,5.9,7.1,2.2,12,2.2c3.1,0,5.9,1.5,7.7,3.8l1.7-2.2
	c-2.2-2.7-5.6-4.3-9.4-4.3C5.6-0.6,0.3,4.3-0.4,10.6h-4.3l5.6,7.3l5.6-7.3H2.4z"/>
</svg>
