<?xml version="1.0" encoding="utf-8"?>
<!-- Generator: Adobe Illustrator 25.0.0, SVG Export Plug-In . SVG Version: 6.00 Build 0)  -->
<svg version="1.1" id="Layer_1" xmlns="http://www.w3.org/2000/svg" xmlns:xlink="http://www.w3.org/1999/xlink" x="0px" y="0px"
	 viewBox="0 0 495 495" style="enable-background:new 0 0 495 495;" xml:space="preserve">
<style type="text/css">
	.st0{fill:#FCFCFC;}
</style>
<g>
	<g>
		<path class="st0" d="M267.5,393.7V434c87.5-9.3,157.2-79,166.5-166.5h-40.3C384.8,332.9,332.9,384.8,267.5,393.7z"/>
		<path class="st0" d="M393.7,227.5H434C424.7,140,355,70.3,267.5,61v40.3C332.9,110.2,384.8,162.1,393.7,227.5z"/>
		<path class="st0" d="M101.3,267.5H61C70.3,355,140,424.7,227.5,434v-40.3C162.1,384.8,110.2,332.9,101.3,267.5z"/>
		<path class="st0" d="M227.5,101.3V61C140,70.3,70.3,140,61,227.5h40.3C110.2,162.1,162.1,110.2,227.5,101.3z"/>
		<path class="st0" d="M247.5,335.2L247.5,335.2c11,0,20,9,20,20V475c0,11-9,20-20,20h0c-11,0-20-9-20-20V355.2
			C227.5,344.1,236.5,335.2,247.5,335.2z"/>
		<path class="st0" d="M355.2,227.5H475c11,0,20,9,20,20v0c0,11-9,20-20,20H355.2c-11,0-20-9-20-20v0
			C335.2,236.5,344.1,227.5,355.2,227.5z"/>
		<path class="st0" d="M247.5,0L247.5,0c11,0,20,9,20,20v119.8c0,11-9,20-20,20h0c-11,0-20-9-20-20V20C227.5,9,236.5,0,247.5,0z"/>
		<path class="st0" d="M20,227.5h119.8c11,0,20,9,20,20v0c0,11-9,20-20,20H20c-11,0-20-9-20-20v0C0,236.5,9,227.5,20,227.5z"/>
	</g>
	<circle class="st0" cx="247.5" cy="247.5" r="32.5"/>
</g>
</svg>
